<svg xmlns="http://www.w3.org/2000/svg" enable-background="new 0 0 48 48" viewBox="0 0 48 48" id="Calendar">
  <path d="M0.5,47.5h47V18.3h0V6.1H39v-2c0-1-0.4-1.9-1.1-2.5c-0.7-0.7-1.6-1.1-2.6-1.1c-2,0-3.6,1.6-3.6,3.6v2H16.2v-2
		c0-1-0.4-1.9-1.1-2.5c-0.7-0.7-1.6-1.1-2.6-1.1c-2,0-3.6,1.6-3.6,3.6v2H0.5v14.1h0V47.5z M45.5,45.5h-43V20.3h43V45.5z M33.8,4.1
		c0-0.9,0.7-1.6,1.6-1.6c0.4,0,0.8,0.2,1.1,0.5C36.8,3.3,37,3.7,37,4.1v2v4c0,0.9-0.7,1.6-1.6,1.6c-0.9,0-1.6-0.7-1.6-1.6v-4V4.1z
		 M11,4.1c0-0.9,0.7-1.6,1.6-1.6c0.4,0,0.8,0.2,1.1,0.5c0.3,0.3,0.5,0.7,0.5,1.1v2v4c0,0.9-0.7,1.6-1.6,1.6S11,11.1,11,10.2v-4V4.1z
		 M2.5,8.1H9v2c0,2,1.6,3.6,3.6,3.6s3.6-1.6,3.6-3.6v-2h15.5v2c0,2,1.6,3.6,3.6,3.6s3.6-1.6,3.6-3.6v-2h6.5v10.1h-43V8.1z" fill="#ffffff" class="color000000 svgShape"></path>
  <polygon points="17.7 26.3 17.7 26.3 17.7 41.7 20 41.7 20 24.1 18 24.1 14.2 26.2 14.6 28" fill="#ffffff" class="color000000 svgShape"></polygon>
  <polygon points="31.5 26.3 31.6 26.3 31.6 41.7 33.9 41.7 33.9 24.1 31.8 24.1 28 26.2 28.5 28" fill="#ffffff" class="color000000 svgShape"></polygon>
</svg>
